<?xml version="1.0" encoding="UTF-8" standalone="no"?>
<!-- Created with Inkscape (http://www.inkscape.org/) -->

<svg
   xmlns:dc="http://purl.org/dc/elements/1.1/"
   xmlns:cc="http://creativecommons.org/ns#"
   xmlns:rdf="http://www.w3.org/1999/02/22-rdf-syntax-ns#"
   xmlns:svg="http://www.w3.org/2000/svg"
   xmlns="http://www.w3.org/2000/svg"
   xmlns:xlink="http://www.w3.org/1999/xlink"
   xmlns:sodipodi="http://sodipodi.sourceforge.net/DTD/sodipodi-0.dtd"
   xmlns:inkscape="http://www.inkscape.org/namespaces/inkscape"
   width="79.969902mm"
   height="22.628466mm"
   viewBox="0 0 79.969902 22.628466"
   version="1.1"
   id="svg7545"
   inkscape:version="0.92.1 r15371"
   sodipodi:docname="flourish2-hollow.svg">
  <defs
     id="defs7539">
    <linearGradient
       inkscape:collect="always"
       id="linearGradient8692">
      <stop
         style="stop-color:#000000;stop-opacity:1;"
         offset="0"
         id="stop8688" />
      <stop
         style="stop-color:#000000;stop-opacity:0;"
         offset="1"
         id="stop8690" />
    </linearGradient>
    <radialGradient
       inkscape:collect="always"
       xlink:href="#linearGradient8692"
       id="radialGradient8694"
       cx="-244.17262"
       cy="-71.148809"
       fx="-244.17262"
       fy="-71.148809"
       r="39.98495"
       gradientTransform="matrix(1,0,0,0.28296228,0,-51.01638)"
       gradientUnits="userSpaceOnUse" />
  </defs>
  <sodipodi:namedview
     id="base"
     pagecolor="#ffffff"
     bordercolor="#666666"
     borderopacity="1.0"
     inkscape:pageopacity="0.0"
     inkscape:pageshadow="2"
     inkscape:zoom="7.9195959"
     inkscape:cx="139.87238"
     inkscape:cy="10.439397"
     inkscape:document-units="mm"
     inkscape:current-layer="layer1"
     showgrid="false"
     fit-margin-top="0"
     fit-margin-left="0"
     fit-margin-right="0"
     fit-margin-bottom="0"
     inkscape:window-width="3840"
     inkscape:window-height="2126"
     inkscape:window-x="3829"
     inkscape:window-y="-11"
     inkscape:window-maximized="1" />
  <metadata
     id="metadata7542">
    <rdf:RDF>
      <cc:Work
         rdf:about="">
        <dc:format>image/svg+xml</dc:format>
        <dc:type
           rdf:resource="http://purl.org/dc/dcmitype/StillImage" />
        <dc:title />
      </cc:Work>
    </rdf:RDF>
  </metadata>
  <g
     inkscape:label="Layer 1"
     inkscape:groupmode="layer"
     id="layer1"
     transform="translate(284.15757,82.463042)">
    <path
       id="path1263"
       style="fill:url(#radialGradient8694);stroke:#010202;stroke-width:0.1984375;stroke-linecap:round;stroke-linejoin:round;fill-opacity:1"
       d="m -243.50083,-68.249792 c 1.17131,-0.569119 2.41988,-1.19036 3.72428,-1.840442 0.30242,-0.150812 0.60775,-0.303212 0.91466,-0.455877 0.0963,0.03757 0.19262,0.07488 0.2884,0.111919 2.05052,0.793485 3.92007,1.474523 5.63033,2.050521 1.71,0.575998 3.26099,1.047221 4.81886,1.471083 1.55786,0.423863 3.12314,0.800629 4.84769,1.155965 1.72456,0.355071 3.60892,0.688446 5.35861,0.869421 1.74995,0.181239 3.36603,0.210343 4.76462,0.148695 0.27649,-0.01217 0.54451,-0.02778 0.80539,-0.04815 -0.14526,0.319881 -0.31935,0.6223 -0.54081,0.928423 -0.29342,0.405871 -0.67045,0.818886 -1.06892,1.155965 -0.39846,0.336814 -0.81888,0.597693 -1.39144,0.833173 -0.57229,0.235479 -1.29699,0.445823 -2.15556,0.583406 -0.85857,0.137848 -1.85155,0.202935 -3.02895,0.141287 -1.1774,-0.06165 -2.54,-0.250031 -4.17751,-0.605102 -1.6375,-0.355071 -3.55071,-0.876829 -5.83327,-1.61581 -2.28256,-0.738981 -4.93474,-1.695715 -7.59433,-2.728383 -1.83938,-0.714111 -3.68247,-1.464998 -5.36205,-2.15609 z m -14.53912,-3.87006 c 0.18283,0.06324 0.36275,0.12647 0.5387,0.189177 1.42028,0.507206 2.60164,0.992716 3.93488,1.547018 1.3335,0.554302 2.81887,1.177661 4.66302,1.92749 0.76649,0.311679 1.59543,0.645583 2.43787,0.985044 -0.2204,0.102658 -0.43418,0.200554 -0.64056,0.293952 -1.63407,0.738981 -2.82972,1.188508 -4.16666,1.637506 -1.33694,0.449263 -2.81543,0.898525 -4.15951,1.264444 -1.34435,0.365919 -2.55455,0.648758 -3.78989,0.858837 -1.23561,0.210079 -2.49661,0.347663 -3.76079,0.329936 -1.26444,-0.01826 -2.53286,-0.192352 -3.7174,-0.449527 -1.18454,-0.257175 -2.28626,-0.597694 -3.22818,-1.061509 -0.94218,-0.463814 -1.72455,-1.050925 -2.3368,-1.670314 -0.61224,-0.619654 -1.05436,-1.271852 -1.27185,-1.90209 -0.0376,-0.108744 -0.0685,-0.216958 -0.0934,-0.324379 0.23733,-0.0045 0.47704,-0.01138 0.71967,-0.02011 1.09775,-0.03969 2.26457,-0.119592 3.41656,-0.26088 1.15226,-0.141287 2.28997,-0.344222 3.46393,-0.619654 1.17395,-0.275431 2.38416,-0.623093 3.68114,-1.061508 1.27212,-0.429419 2.62785,-0.946679 4.30927,-1.663435 z m 2.27436,-0.995892 c 1.18878,-0.529432 2.4646,-1.105959 3.76423,-1.680898 0.40455,-0.178859 0.81121,-0.357717 1.21814,-0.535252 1.96347,0.770202 3.81715,1.526116 5.63007,2.263775 1.91479,0.779198 3.7846,1.538287 5.5417,2.229114 -0.42916,0.214578 -0.85011,0.424921 -1.25889,0.629444 -1.22317,0.611452 -2.33945,1.168136 -3.35095,1.663171 -0.48948,-0.202142 -0.96255,-0.39714 -1.41367,-0.583406 -2.17037,-0.894821 -3.84413,-1.576123 -5.77532,-2.337065 -1.39859,-0.550862 -2.93211,-1.143794 -4.35531,-1.648883 z m -0.85248,-0.296334 c -0.24316,-0.08255 -0.48102,-0.161396 -0.71279,-0.236008 -1.80076,-0.579702 -3.21363,-0.898525 -4.86595,-1.10146 -1.65206,-0.202936 -3.54357,-0.289984 -5.07604,-0.112448 -1.53246,0.177535 -2.70642,0.619654 -3.60494,1.083204 -0.89853,0.463814 -1.52189,0.949325 -2.00713,1.420283 -0.48525,0.470959 -0.83344,0.92763 -1.05437,1.41314 -0.22092,0.48551 -0.31512,1.000125 -0.32596,1.510771 -0.003,0.125412 -2.7e-4,0.25056 0.007,0.375708 -0.60246,-0.01296 -1.1819,-0.04498 -1.72482,-0.09287 -1.43828,-0.126735 -2.61938,-0.365918 -3.64834,-0.731837 -1.02897,-0.365919 -1.9058,-0.858838 -2.49635,-1.373188 -0.59055,-0.514614 -0.89508,-1.050925 -1.09087,-1.499923 -0.19553,-0.449262 -0.28258,-0.811477 -0.30428,-1.224491 -0.022,-0.413015 0.0217,-0.87683 0.17384,-1.326092 0.15213,-0.449263 0.41301,-0.884238 0.80803,-1.355196 0.39476,-0.470958 0.92393,-0.978165 1.65577,-1.452827 0.73183,-0.474398 1.66661,-0.916517 2.66303,-1.28614 0.99642,-0.369358 2.05449,-0.66675 3.31867,-0.887677 1.26444,-0.220927 2.73552,-0.365918 4.25,-0.373062 1.51447,-0.0074 3.0726,0.123031 4.77176,0.431006 1.69942,0.307975 3.53986,0.793485 5.84782,1.539875 2.30822,0.74639 5.08344,1.753658 7.65228,2.739231 0.32332,0.12409 0.64346,0.247915 0.96044,0.370946 -0.79111,0.335227 -1.62878,0.687917 -2.51116,1.056481 -0.86784,0.362215 -1.77906,0.740569 -2.68605,1.112573 z m 44.66642,7.382669 c -0.62759,0.01693 -1.32873,-0.0056 -2.2053,-0.07541 -1.45282,-0.115883 -3.38772,-0.362475 -5.3586,-0.72469 -1.97089,-0.362479 -3.97828,-0.840581 -6.23914,-1.478227 -2.26087,-0.637646 -4.77547,-1.434835 -7.40569,-2.413 -0.99616,-0.370416 -2.00898,-0.767027 -2.99852,-1.164166 1.15596,-0.567003 2.27144,-1.104107 3.26654,-1.560513 2.02168,-0.927365 3.54357,-1.521619 4.8731,-2.017977 1.32953,-0.496359 2.4675,-0.894821 3.56155,-1.202796 1.09432,-0.307975 2.14498,-0.525463 3.0906,-0.688446 0.94562,-0.163248 1.78647,-0.271727 2.75722,-0.351631 0.97103,-0.07964 2.07249,-0.13044 3.26099,-0.03281 1.18851,0.09763 2.4638,0.344223 3.53272,0.633942 1.06892,0.289983 1.93119,0.623093 2.68843,1.014412 0.75724,0.391319 1.40944,0.840581 1.94919,1.329531 0.53975,0.489215 0.96731,1.018117 1.30783,1.492779 0.34052,0.474663 0.59426,0.895086 0.73898,1.376892 0.145,0.481806 0.18124,1.02526 0.145,1.521883 -0.0362,0.496359 -0.145,0.945621 -0.34793,1.344084 -0.20294,0.398462 -0.50006,0.746389 -0.95277,1.137708 -0.4527,0.391319 -1.06177,0.826294 -1.83329,1.144852 -0.77179,0.318823 -1.70657,0.522023 -2.65933,0.630502 -0.19553,0.02223 -0.39211,0.04075 -0.5932,0.05477 0.01,-0.09737 0.0167,-0.197908 0.0206,-0.301096 0.0254,-0.673894 -0.0833,-1.471083 -0.32596,-2.213769 -0.24263,-0.742686 -0.61966,-1.431132 -1.1991,-2.119578 -0.5797,-0.688446 -1.36234,-1.376891 -2.25742,-1.942042 -0.89509,-0.56515 -1.90209,-1.007268 -2.92021,-1.253596 -1.01812,-0.246327 -2.04708,-0.297127 -2.94931,-0.235743 -0.90223,0.06165 -1.67746,0.235743 -2.30055,0.51091 -0.62309,0.275167 -1.09432,0.652198 -1.40944,1.047221 -0.31512,0.395023 -0.47466,0.808038 -0.53975,1.195652 -0.0653,0.387615 -0.0362,0.750094 0.13388,1.032669 0.17039,0.282575 0.48207,0.48551 0.79719,0.521758 0.31512,0.03625 0.63421,-0.09419 0.84058,-0.282575 0.20638,-0.188383 0.30057,-0.434975 0.32253,-0.677598 0.0217,-0.242622 -0.0291,-0.481806 -0.1487,-0.626797 -0.11959,-0.144992 -0.30797,-0.195792 -0.46355,-0.166688 -0.15583,0.02884 -0.27913,0.137848 -0.38417,0.210079 -0.10504,0.07223 -0.19209,0.108744 -0.25718,0.08705 -0.0653,-0.02196 -0.10874,-0.1016 -0.0907,-0.275431 0.0183,-0.173831 0.0979,-0.442119 0.35508,-0.738981 0.25744,-0.297128 0.69215,-0.623094 1.29354,-0.858838 0.6014,-0.235479 1.36975,-0.380471 2.19208,-0.409311 0.82232,-0.02884 1.69942,0.05794 2.54344,0.271728 0.84402,0.213783 1.65576,0.554302 2.34791,0.923925 0.69215,0.369623 1.26444,0.76835 1.7608,1.246452 0.49636,0.478367 0.91652,1.036373 1.2282,1.536171 0.31168,0.500062 0.51461,0.942181 0.66304,1.441979 0.1487,0.500062 0.24289,1.058069 0.2249,1.579827 -0.007,0.179652 -0.0265,0.354542 -0.0561,0.524933 z m 0.29607,1.176073 c 0.78634,-0.09181 1.51607,-0.237066 2.23414,-0.464873 1.152,-0.365918 2.27542,-0.945885 3.06891,-1.547018 0.79348,-0.601398 1.2573,-1.224757 1.57242,-1.884098 0.31511,-0.659342 0.4818,-1.355196 0.49265,-2.028825 0.0109,-0.673894 -0.13414,-1.326357 -0.39132,-1.931194 -0.25717,-0.604838 -0.6268,-1.163109 -1.26815,-1.804194 -0.64108,-0.64135 -1.55442,-1.366044 -2.58683,-1.949186 -1.03267,-0.583406 -2.18493,-1.02526 -3.26443,-1.347787 -1.0795,-0.322527 -2.08703,-0.525463 -3.36232,-0.59055 -1.27529,-0.06535 -2.81887,0.0071 -4.68868,0.268023 -1.86955,0.260879 -4.06506,0.710142 -6.20633,1.351492 -2.14128,0.64135 -4.22831,1.474522 -6.76434,2.641335 -1.28482,0.590815 -2.68499,1.267619 -4.08279,1.9558 -1.35387,-0.549804 -2.64345,-1.089025 -3.76184,-1.550194 -2.12672,-0.876564 -3.63406,-1.471083 -5.43111,-2.184664 -0.55165,-0.219075 -1.13082,-0.449792 -1.72825,-0.685536 0.72125,-0.305329 1.42398,-0.599546 2.09391,-0.876035 1.93119,-0.79719 3.59066,-1.449388 5.04349,-1.974586 1.45282,-0.525197 2.69928,-0.923925 3.85154,-1.224491 1.15226,-0.300831 2.21032,-0.503767 3.10515,-0.652198 0.89482,-0.148696 1.62665,-0.242888 2.30425,-0.300831 0.6776,-0.05794 1.30096,-0.0799 2.01454,-0.0254 0.71385,0.0545 1.51818,0.184943 2.19551,0.351631 0.67734,0.166687 1.22846,0.369623 1.70656,0.637646 0.47811,0.268023 0.88398,0.601398 1.1557,0.818885 0.27173,0.217223 0.40958,0.318823 0.51806,0.340519 0.10874,0.02196 0.18865,-0.03625 0.21378,-0.152136 0.0254,-0.115887 -0.004,-0.289983 -0.23918,-0.568854 -0.23548,-0.278871 -0.6776,-0.663046 -1.2573,-0.996156 -0.57944,-0.333375 -1.29699,-0.616215 -2.11587,-0.811742 -0.81889,-0.195791 -1.73938,-0.30427 -2.65219,-0.322527 -0.91307,-0.01799 -1.81901,0.05424 -2.69213,0.166688 -0.87313,0.112183 -1.71397,0.264583 -2.51804,0.456671 -0.80434,0.192087 -1.57242,0.424127 -2.92735,0.865981 -1.35493,0.442119 -3.29698,1.094316 -4.93845,1.71741 -1.64121,0.623094 -2.98185,1.217348 -4.7027,1.963738 -0.25348,0.109802 -0.51515,0.223043 -0.78476,0.33946 -1.16364,-0.457464 -2.38231,-0.927894 -3.59225,-1.372394 -2.06137,-0.757237 -4.09786,-1.438539 -6.07589,-1.956329 -1.97829,-0.518054 -3.89863,-0.873389 -5.77188,-1.112573 -1.87299,-0.239183 -3.69914,-0.362479 -5.43825,-0.337079 -1.73911,0.0254 -3.39143,0.199496 -4.9239,0.492919 -1.53246,0.293423 -2.9456,0.706437 -4.09416,1.148556 -1.14855,0.442119 -2.03279,0.913077 -2.74267,1.366044 -0.7104,0.452967 -1.24645,0.887677 -1.68857,1.391444 -0.44212,0.503502 -0.78978,1.07606 -1.00356,1.637506 -0.21379,0.56171 -0.29343,1.112308 -0.27544,1.655762 0.018,0.543455 0.13415,1.079765 0.33338,1.557867 0.19923,0.478102 0.48207,0.898525 0.87312,1.293548 0.39132,0.395023 0.89139,0.764646 1.48194,1.108604 0.59055,0.343959 1.27185,0.663046 2.17037,0.909373 0.89853,0.246327 2.01454,0.420423 3.0869,0.507207 0.64981,0.05265 1.28376,0.07329 1.92643,0.07276 0.0394,0.195792 0.0937,0.392112 0.1643,0.590285 0.18468,0.518055 0.48181,1.047221 0.95991,1.572419 0.47837,0.525198 1.13771,1.047221 1.63433,1.420283 0.4961,0.373063 0.82947,0.597694 1.36208,0.844021 0.53261,0.246327 1.26444,0.51435 2.04364,0.749829 0.77893,0.23548 1.60496,0.438415 2.47809,0.579703 0.87312,0.141287 1.79361,0.220927 2.77548,0.22807 0.98187,0.0074 2.02538,-0.05794 3.23559,-0.242623 1.20994,-0.184679 2.58683,-0.489214 4.01796,-0.86942 1.43139,-0.380471 2.91677,-0.837142 4.43838,-1.376892 1.52162,-0.540015 3.07975,-1.163108 4.93845,-2.010833 0.12806,-0.05847 0.25771,-0.11774 0.38841,-0.17833 0.94985,0.383117 1.89997,0.767821 2.78209,1.131094 1.89125,0.778934 3.47107,1.460236 5.10858,2.123017 1.63751,0.663046 3.33348,1.3081 4.96014,1.880394 1.62666,0.572558 3.18479,1.072356 4.85511,1.431131 1.67031,0.358775 3.45307,0.576262 5.18477,0.652198 1.73196,0.0762 3.41313,0.01085 4.8223,-0.253471 1.40943,-0.264583 2.54714,-0.728398 3.44937,-1.304396 0.90223,-0.575998 1.56898,-1.264444 2.01083,-1.793346 0.44212,-0.528902 0.65961,-0.898525 0.84799,-1.358635 0.0238,-0.05847 0.0476,-0.118269 0.0704,-0.179917 z m -47.35115,-7.591425 c -0.79772,0.318294 -1.55575,0.614892 -2.23705,0.872861 -2.07593,0.786077 -3.43853,1.213643 -4.971,1.583266 -1.53246,0.369623 -3.23559,0.681302 -4.93474,0.829734 -0.86492,0.07567 -1.72905,0.109008 -2.55852,0.106891 -0.0164,-0.316706 0.0124,-0.623887 0.0696,-0.918368 0.10848,-0.561711 0.31909,-1.076061 0.6813,-1.550459 0.36222,-0.474662 0.87683,-0.909637 1.49648,-1.289844 0.61939,-0.380471 1.34409,-0.706702 2.18837,-0.920485 0.84429,-0.213784 1.8079,-0.315119 3.00011,-0.25744 1.19195,0.05794 2.61223,0.275431 4.15211,0.648494 1.0197,0.247385 2.09259,0.563033 3.11335,0.89535 z" />
  </g>
</svg>
