<?xml version="1.0" encoding="UTF-8" standalone="no"?>
<!-- Created with Inkscape (http://www.inkscape.org/) -->

<svg
   xmlns:dc="http://purl.org/dc/elements/1.1/"
   xmlns:cc="http://creativecommons.org/ns#"
   xmlns:rdf="http://www.w3.org/1999/02/22-rdf-syntax-ns#"
   xmlns:svg="http://www.w3.org/2000/svg"
   xmlns="http://www.w3.org/2000/svg"
   xmlns:sodipodi="http://sodipodi.sourceforge.net/DTD/sodipodi-0.dtd"
   xmlns:inkscape="http://www.inkscape.org/namespaces/inkscape"
   width="79.929939mm"
   height="22.047714mm"
   viewBox="0 0 79.929939 22.047714"
   version="1.1"
   id="svg4796"
   inkscape:version="0.92.1 r15371"
   sodipodi:docname="flourish1.svg">
  <defs
     id="defs4790" />
  <sodipodi:namedview
     id="base"
     pagecolor="#ffffff"
     bordercolor="#666666"
     borderopacity="1.0"
     inkscape:pageopacity="0.0"
     inkscape:pageshadow="2"
     inkscape:zoom="3.959798"
     inkscape:cx="180.50749"
     inkscape:cy="43.394225"
     inkscape:document-units="mm"
     inkscape:current-layer="layer1"
     showgrid="false"
     inkscape:window-width="3840"
     inkscape:window-height="2126"
     inkscape:window-x="3829"
     inkscape:window-y="-11"
     inkscape:window-maximized="1"
     fit-margin-top="0"
     fit-margin-left="0"
     fit-margin-right="0"
     fit-margin-bottom="0" />
  <metadata
     id="metadata4793">
    <rdf:RDF>
      <cc:Work
         rdf:about="">
        <dc:format>image/svg+xml</dc:format>
        <dc:type
           rdf:resource="http://purl.org/dc/dcmitype/StillImage" />
        <dc:title></dc:title>
      </cc:Work>
    </rdf:RDF>
  </metadata>
  <g
     inkscape:label="Layer 1"
     inkscape:groupmode="layer"
     id="layer1"
     transform="translate(-14.357563,-162.6981)">
    <path
       inkscape:connector-curvature="0"
       style=""
       id="path839"
       d="m 61.649332,168.74891 c 0.02461,0.0841 0.0471,0.17013 0.06747,0.25771 0.130439,0.558 0.181239,1.19565 0.144991,1.78249 -0.03625,0.58685 -0.159544,1.12342 -0.340519,1.60867 -0.18124,0.48551 -0.420423,0.92049 -0.735542,1.3298 -0.23495,0.30506 -0.512498,0.59637 -0.815446,0.8718 -1.574271,-0.65802 -3.343804,-1.42902 -4.952735,-2.12381 -0.686065,-0.29634 -1.343025,-0.57891 -1.98173,-0.85143 0.765969,-0.27464 1.520825,-0.5424 2.220913,-0.78423 1.699419,-0.58684 3.076046,-1.02182 4.409546,-1.45309 0.665427,-0.2151 1.320535,-0.42942 1.983052,-0.63791 z" />
    <path
       inkscape:connector-curvature="0"
       style=""
       id="path1223"
       d="m 38.215186,168.21022 c -0.393435,-0.11033 -0.770996,-0.21034 -1.13956,-0.30348 -1.202796,-0.30427 -2.311665,-0.53631 -3.655748,-0.75379 -1.344084,-0.21723 -2.923911,-0.42016 -4.36589,-0.53632 -1.441979,-0.11588 -2.746375,-0.14499 -4.07961,-0.0905 -1.333236,0.0542 -2.695575,0.19208 -3.884084,0.4527 -1.188508,0.26061 -2.202921,0.64505 -2.94931,1.03267 -0.74639,0.38761 -1.224492,0.77893 -1.666611,1.22475 -0.442118,0.44556 -0.847989,0.94563 -1.1303,1.54332 -0.282575,0.59769 -0.442118,1.29355 -0.398727,1.94204 0.04366,0.64849 0.289984,1.25016 0.702998,1.79705 0.413015,0.54689 0.992717,1.03981 1.884098,1.46738 0.891381,0.42757 2.094442,0.78978 3.847836,1.01812 1.753658,0.22807 4.057914,0.32226 5.782468,0.31882 1.724555,-0.004 2.869671,-0.1053 4.043363,-0.24289 1.173956,-0.13758 2.376752,-0.31168 3.815292,-0.57626 0.232304,-0.0426 0.471223,-0.0878 0.715168,-0.1352 -0.03625,-0.11774 -0.06932,-0.23707 -0.09922,-0.35772 -0.18468,-0.74268 -0.257175,-1.54702 -0.199232,-2.33336 0.05794,-0.78608 0.246592,-1.55443 0.594255,-2.33336 0.347662,-0.77893 0.854868,-1.56871 1.51077,-2.36961 0.208757,-0.254 0.432594,-0.51012 0.672042,-0.76438 z" />
    <path
       inkscape:connector-curvature="0"
       style=""
       id="path1225"
       d="m 72.080001,178.89436 c 0.822325,-0.47969 1.553633,-0.95885 2.245783,-1.4441 1.054365,-0.73898 2.017977,-1.49277 2.858558,-2.27541 0.840582,-0.78264 1.558132,-1.59412 2.072482,-2.34421 0.51435,-0.75009 0.826029,-1.43854 0.978164,-2.08703 0.152136,-0.6485 0.144992,-1.2573 0.01085,-1.81505 -0.134146,-0.558 -0.395025,-1.06521 -0.815183,-1.51447 -0.420159,-0.44926 -0.999861,-0.84058 -1.612371,-1.08691 -0.612246,-0.24633 -1.2573,-0.34766 -1.974585,-0.40931 -0.717286,-0.0614 -1.507332,-0.0833 -2.496344,-0.0471 -0.989277,0.0362 -2.177521,0.13071 -3.427677,0.31909 -1.250157,0.18839 -2.561696,0.47096 -3.572404,0.6993 -1.010709,0.22807 -1.721115,0.40216 -2.739232,0.6813 -0.318823,0.0873 -0.667808,0.18494 -1.039548,0.29077 -0.282839,-0.64267 -0.676804,-1.18797 -1.14882,-1.70391 -0.547159,-0.59796 -1.199357,-1.1557 -2.090473,-1.67032 -0.891382,-0.51435 -2.021946,-0.98557 -3.380317,-1.2827 -1.358635,-0.29712 -2.945871,-0.42015 -4.402138,-0.40587 -1.456531,0.0146 -2.782622,0.16669 -4.15925,0.49266 -1.376891,0.32596 -2.804583,0.82629 -4.07617,1.39858 -1.271588,0.5723 -2.3876,1.21735 -3.347773,1.94575 -0.05159,0.0392 -0.102923,0.0788 -0.153723,0.11853 -0.624681,-0.17833 -1.22899,-0.34369 -1.795198,-0.49159 -1.749954,-0.45641 -3.141398,-0.74639 -4.521729,-0.95303 -1.380332,-0.20638 -2.750079,-0.32967 -4.28969,-0.30427 -1.539875,0.0254 -3.250142,0.19949 -4.862248,0.47466 -1.612371,0.27543 -3.126846,0.6522 -4.254765,1.0451 -1.127654,0.39318 -1.868752,0.80249 -2.42861,1.15491 -0.559858,0.35243 -0.938212,0.6477 -1.27979,0.96203 -0.341577,0.31432 -0.645847,0.6477 -0.921014,1.0279 -0.275431,0.38047 -0.522023,0.80804 -0.681302,1.22105 -0.159544,0.41302 -0.231775,0.81175 -0.275431,1.17026 -0.04366,0.35851 -0.05821,0.67759 -0.0254,1.00727 0.03281,0.32993 0.112447,0.67045 0.282574,1.03637 0.170392,0.36592 0.431007,0.75724 0.74639,1.10172 0.315119,0.34423 0.684742,0.64109 1.1303,0.91652 0.445823,0.27543 0.967317,0.52917 1.666611,0.76465 0.699558,0.23547 1.576387,0.45296 2.568839,0.62309 0.992717,0.17039 2.101586,0.29342 3.347773,0.35507 1.246452,0.0617 2.630488,0.0617 3.7973,0.0146 1.166548,-0.0471 2.115873,-0.14155 3.166534,-0.26829 1.05066,-0.12673 2.20292,-0.28628 3.601508,-0.5289 0.361421,-0.0627 0.73951,-0.13123 1.132417,-0.20585 0.170127,0.42916 0.388937,0.85329 0.668337,1.29805 0.463815,0.73925 1.094317,1.53644 1.862402,2.25743 0.768086,0.72099 1.674019,1.36604 2.695575,1.92378 1.021821,0.55801 2.159529,1.02923 3.362325,1.38404 1.202796,0.3548 2.470944,0.59425 3.67374,0.73554 1.20306,0.14129 2.340768,0.18468 3.511021,0.16669 1.170252,-0.018 2.373312,-0.0979 3.64146,-0.25718 1.268148,-0.15954 2.601383,-0.39846 3.822435,-0.66675 1.221052,-0.26802 2.329657,-0.56515 3.434821,-0.87683 1.105165,-0.31168 2.206625,-0.63764 3.604948,-1.17395 1.085321,-0.41619 2.3495,-0.95885 3.525308,-1.5248 0.89879,0.24712 1.757363,0.46329 2.5654,0.64426 1.699155,0.38047 3.177646,0.6051 4.601369,0.7247 1.423988,0.11959 2.793736,0.13414 4.141259,-0.003 1.347522,-0.13759 2.673879,-0.42757 3.873235,-0.79719 1.199092,-0.36936 2.271712,-0.81889 3.257285,-1.33324 0.985573,-0.51435 1.884098,-1.09432 2.637632,-1.69201 0.753533,-0.59769 1.362339,-1.21391 1.858698,-1.84785 0.496358,-0.63394 0.880533,-1.2864 1.134004,-1.98914 0.253735,-0.70303 0.377031,-1.45657 0.398727,-2.15956 0.0217,-0.70274 -0.05794,-1.3552 -0.297127,-2.01454 -0.238919,-0.65961 -0.637646,-1.32609 -1.123157,-1.8878 -0.48551,-0.56171 -1.058068,-1.01812 -1.74281,-1.36949 -0.684742,-0.35136 -1.481931,-0.59796 -2.202921,-0.72813 -0.720989,-0.13044 -1.366044,-0.14499 -1.999985,-0.0145 -0.633942,0.13044 -1.2573,0.40587 -1.731698,0.73554 -0.474663,0.32993 -0.800894,0.71384 -1.036373,1.1848 -0.235744,0.47096 -0.380471,1.02897 -0.365919,1.52162 0.01429,0.49266 0.188384,0.92049 0.467519,1.26101 0.279135,0.34051 0.663046,0.59425 1.028965,0.68103 0.365918,0.0871 0.713845,0.007 0.967316,-0.14128 0.253471,-0.1487 0.413279,-0.36619 0.485511,-0.56542 0.07223,-0.19923 0.05794,-0.38047 -0.0037,-0.5252 -0.06165,-0.14499 -0.170391,-0.25347 -0.307975,-0.31512 -0.137583,-0.0616 -0.30427,-0.0762 -0.434975,-0.0471 -0.130175,0.0291 -0.224631,0.1016 -0.376766,0.14129 -0.152136,0.0397 -0.362479,0.0471 -0.525463,-0.0542 -0.162988,-0.10134 -0.278876,-0.31168 -0.311419,-0.58711 -0.03281,-0.27543 0.01799,-0.61595 0.173831,-0.95647 0.15584,-0.34052 0.416454,-0.68104 0.749829,-0.94562 0.333375,-0.26459 0.738981,-0.45297 1.268148,-0.55457 0.528902,-0.10134 1.1811,-0.11589 1.891242,-0.0146 0.710141,0.1016 1.478491,0.31882 2.101321,0.6051 0.623093,0.28628 1.101725,0.64135 1.507331,1.1086 0.405871,0.46752 0.738981,1.04723 0.94906,1.62693 0.210344,0.57944 0.297392,1.1594 0.289984,1.7571 -0.0071,0.59795 -0.108744,1.2139 -0.300832,1.78276 -0.192087,0.56885 -0.474662,1.09061 -0.829733,1.61581 -0.355071,0.52546 -0.782638,1.05436 -1.304131,1.53987 -0.521759,0.48551 -1.137709,0.92763 -1.840707,1.36605 -0.702997,0.43841 -1.493043,0.87312 -2.43496,1.22449 -0.941917,0.35137 -2.036233,0.61965 -3.322373,0.77893 -1.286139,0.15928 -2.764631,0.21008 -4.340489,0.13785 -1.576123,-0.0725 -3.250142,-0.26829 -4.931305,-0.61225 -0.746125,-0.15292 -1.493837,-0.33522 -2.220118,-0.53075 z" />
    <path
       inkscape:connector-curvature="0"
       style=""
       id="path1229"
       d="m 60.64418,174.87931 c 0.131498,-0.1143 0.259556,-0.23151 0.384175,-0.35296 0.532606,-0.51805 1.003829,-1.10516 1.362339,-1.7354 0.358511,-0.6305 0.605102,-1.30439 0.663046,-2.10502 0.05239,-0.72364 -0.04921,-1.55099 -0.280458,-2.28124 0.299508,-0.0886 0.602456,-0.17568 0.910696,-0.26062 1.394883,-0.38391 2.894806,-0.72469 4.326202,-0.96361 1.431131,-0.23918 2.793471,-0.37703 3.967427,-0.44212 1.173956,-0.0653 2.159529,-0.0579 3.05435,0.0762 0.894821,0.13415 1.699419,0.39503 2.315104,0.72814 0.615685,0.33311 1.043517,0.73898 1.315244,1.1123 0.271727,0.37333 0.387614,0.71385 0.438414,1.09432 0.0508,0.38047 0.03625,0.80063 -0.04709,1.25704 -0.08334,0.45667 -0.23548,0.94932 -0.536046,1.47822 -0.300832,0.52891 -0.750094,1.09406 -1.366044,1.7063 -0.61595,0.61225 -1.398588,1.27185 -2.210065,1.92379 -0.811741,0.6522 -1.652323,1.29725 -2.811727,1.99284 -0.294481,0.17674 -0.609864,0.35692 -0.938741,0.53737 -0.59108,-0.17145 -1.160727,-0.34846 -1.695186,-0.52097 -1.434571,-0.46381 -2.615935,-0.89852 -3.891227,-1.3589 -1.275292,-0.46011 -2.645039,-0.94562 -4.467225,-1.6846 -0.161131,-0.0648 -0.325437,-0.13229 -0.493183,-0.20108 z" />
    <path
       inkscape:connector-curvature="0"
       style=""
       id="path1233"
       d="m 43.702909,170.05516 c -0.88556,-0.33338 -1.719527,-0.63632 -2.478881,-0.89826 -0.828675,-0.28602 -1.568715,-0.52335 -2.252398,-0.7276 -0.135467,0.14896 -0.269081,0.30453 -0.40349,0.46857 -0.51091,0.6231 -1.032404,1.36949 -1.412875,2.08333 -0.380471,0.71358 -0.619654,1.39488 -0.750094,2.06534 -0.130439,0.67019 -0.152135,1.32953 -0.130439,1.8841 0.01879,0.48392 0.07117,0.88767 0.168275,1.29804 1.072621,-0.21881 2.224352,-0.47704 3.385873,-0.76729 1.289844,-0.32226 2.592387,-0.68474 3.763698,-1.03743 -0.02752,-0.0534 -0.05371,-0.10742 -0.07885,-0.16192 -0.242623,-0.52891 -0.365919,-1.10861 -0.387615,-1.71742 -0.0217,-0.6088 0.05821,-1.24645 0.28284,-1.85155 0.08096,-0.21775 0.18071,-0.43127 0.293952,-0.63791 z" />
    <path
       inkscape:connector-curvature="0"
       style=""
       id="path1237"
       d="m 44.091317,174.27209 c -0.09578,-0.18018 -0.180975,-0.37571 -0.24765,-0.59505 -0.148431,-0.48921 -0.206639,-1.09776 -0.170391,-1.63063 0.03625,-0.5326 0.166687,-0.98901 0.376766,-1.42742 0.05794,-0.12092 0.121709,-0.24051 0.192352,-0.35931 0.878682,0.33523 1.802607,0.69771 2.749815,1.07818 0.817298,0.32835 1.652323,0.67019 2.496873,1.02129 -0.183356,0.0699 -0.361421,0.13785 -0.533136,0.20347 -1.779058,0.67759 -2.887662,1.0832 -4.300537,1.53246 -0.183092,0.0585 -0.371475,0.11748 -0.564092,0.17701 z" />
    <path
       inkscape:connector-curvature="0"
       style=""
       id="path1239"
       d="m 57.950457,176.00088 c -0.402431,0.2024 -0.838994,0.38073 -1.367896,0.56356 -0.67019,0.23177 -1.489075,0.47096 -2.15556,0.64505 -0.666486,0.1741 -1.1811,0.28258 -1.865842,0.33682 -0.684742,0.0545 -1.539875,0.0545 -2.416704,-0.0434 -0.876829,-0.0979 -1.775354,-0.29342 -2.59424,-0.5797 -0.818885,-0.28628 -1.558131,-0.66305 -2.057929,-1.01442 -0.500062,-0.35136 -0.760942,-0.6776 -1.010973,-1.02526 -0.0471,-0.0654 -0.09366,-0.13176 -0.139435,-0.19923 0.228071,-0.0728 0.452437,-0.14552 0.672306,-0.21722 1.674019,-0.5469 3.086894,-1.05437 4.804304,-1.67746 0.123561,-0.0447 0.248444,-0.09 0.37465,-0.136 1.118394,0.46911 2.249752,0.95277 3.37529,1.44198 1.468437,0.63765 2.92735,1.28561 4.382029,1.90527 z" />
    <path
       inkscape:connector-curvature="0"
       style=""
       id="path1241"
       d="m 40.60358,166.98441 c 0.536046,-0.3855 1.154377,-0.76624 1.870604,-1.15174 0.901965,-0.48551 1.960033,-0.97842 2.963598,-1.35149 1.003564,-0.37306 1.952889,-0.6268 2.913062,-0.79348 0.960173,-0.16669 1.931194,-0.24633 2.992967,-0.24633 1.061508,0 2.213769,0.0796 3.282421,0.29342 1.068917,0.21379 2.054489,0.56171 2.938462,0.97102 0.883973,0.40958 1.666611,0.88054 2.249752,1.3552 0.583407,0.47466 0.967582,0.95303 1.264444,1.43113 0.141817,0.22834 0.264054,0.45694 0.366977,0.694 -0.502708,0.14764 -1.0287,0.3048 -1.562364,0.46726 -1.380332,0.42016 -2.815167,0.87683 -4.756944,1.57956 -0.884767,0.32015 -1.874308,0.69162 -2.858294,1.06495 -0.964671,-0.40878 -1.897062,-0.79772 -2.837391,-1.18057 -1.244071,-0.50668 -2.5019,-1.00277 -3.81053,-1.48141 0.229923,-0.20425 0.478367,-0.40005 0.741363,-0.57467 0.550862,-0.36592 1.166812,-0.64135 1.854994,-0.85143 0.688445,-0.21008 1.449387,-0.35507 2.155825,-0.42042 0.706437,-0.0653 1.3589,-0.0505 1.934898,0.0653 0.575997,0.11589 1.07606,0.33337 1.402027,0.52917 0.325966,0.19552 0.478366,0.36962 0.565414,0.54001 0.08705,0.17039 0.108744,0.33682 0.0725,0.48181 -0.03625,0.14472 -0.13044,0.26828 -0.152135,0.38047 -0.02196,0.11245 0.0291,0.21405 0.115887,0.27543 0.08705,0.0614 0.210344,0.0833 0.329671,0.04 0.119592,-0.0436 0.235744,-0.1524 0.300831,-0.31168 0.06509,-0.15954 0.07964,-0.36962 0.03625,-0.6014 -0.04366,-0.23177 -0.144998,-0.48551 -0.369629,-0.73554 -0.224631,-0.25003 -0.572558,-0.49636 -0.947473,-0.68924 -0.374914,-0.19288 -0.777346,-0.33231 -1.322652,-0.43841 -0.545306,-0.10583 -1.233752,-0.17833 -2.012421,-0.11695 -0.778933,0.0616 -1.648618,0.25744 -2.430991,0.54002 -0.782638,0.28257 -1.478492,0.6522 -2.050786,1.03267 -0.308239,0.20478 -0.58076,0.41301 -0.830791,0.63658 -0.385763,-0.13784 -0.776552,-0.27384 -1.172898,-0.40798 -1.06389,-0.36169 -2.169054,-0.70962 -3.236648,-1.02526 z" />
    <path
       inkscape:connector-curvature="0"
       style=""
       id="path1243"
       d="m 43.840228,174.8428 c -1.369748,0.43021 -2.840567,0.86148 -4.224867,1.21443 -1.067858,0.27226 -2.084123,0.49821 -3.027098,0.68766 0.122767,0.37491 0.293952,0.77099 0.552186,1.20729 0.337079,0.56859 0.822589,1.2065 1.344347,1.7571 0.521759,0.55059 1.079765,1.01441 1.742811,1.45282 0.663046,0.43842 1.431131,0.85143 2.318808,1.23561 0.887677,0.38391 1.894946,0.73898 2.938463,0.98901 1.043516,0.25003 2.123016,0.39502 3.365764,0.48181 1.242748,0.0871 2.648744,0.11588 4.039923,0.0579 1.391179,-0.0579 2.768071,-0.20294 4.068763,-0.40931 1.300691,-0.20638 2.525183,-0.47467 3.713691,-0.77179 1.188244,-0.29713 2.340505,-0.6231 3.557852,-1.03638 1.217348,-0.41301 2.500048,-0.91307 3.88038,-1.53617 0.215106,-0.0971 0.432593,-0.19738 0.650875,-0.29951 -0.698236,-0.20214 -1.417638,-0.42121 -2.154502,-0.6551 -2.054225,-0.6522 -4.242859,-1.42029 -6.434667,-2.29712 -0.52414,-0.20955 -1.048544,-0.42545 -1.573213,-0.64584 -0.516466,0.28363 -1.07315,0.55006 -1.662112,0.79084 -0.833173,0.34051 -1.731963,0.6305 -2.808023,0.81518 -1.07606,0.18468 -2.329656,0.26458 -3.336925,0.21748 -1.007004,-0.0471 -1.76821,-0.22092 -2.514335,-0.43841 -0.74639,-0.21722 -1.478228,-0.47837 -2.10873,-0.80433 -0.630237,-0.32597 -1.159404,-0.71729 -1.604962,-1.152 -0.276225,-0.26961 -0.5207,-0.55615 -0.724429,-0.86122 z" />
  </g>
</svg>
